<svg width="1146" height="200" viewBox="0 0 1146 200" fill="none" xmlns="http://www.w3.org/2000/svg">
<path d="M19.424 8.6H22.624V31H19.424V8.6ZM6.56 31H3.36V8.6H6.56V31ZM19.712 21.016H6.24V18.232H19.712V21.016ZM36.4328 31.192C34.6194 31.192 33.0194 30.8187 31.6328 30.072C30.2674 29.3253 29.2008 28.3013 28.4328 27C27.6861 25.6987 27.3128 24.2053 27.3128 22.52C27.3128 20.8347 27.6754 19.3413 28.4008 18.04C29.1474 16.7387 30.1608 15.7253 31.4408 15C32.7421 14.2533 34.2034 13.88 35.8248 13.88C37.4674 13.88 38.9181 14.2427 40.1768 14.968C41.4354 15.6933 42.4168 16.7173 43.1208 18.04C43.8461 19.3413 44.2088 20.8667 44.2088 22.616C44.2088 22.744 44.1981 22.8933 44.1768 23.064C44.1768 23.2347 44.1661 23.3947 44.1448 23.544H29.7128V21.336H42.5448L41.2968 22.104C41.3181 21.016 41.0941 20.0453 40.6248 19.192C40.1554 18.3387 39.5048 17.6773 38.6728 17.208C37.8621 16.7173 36.9128 16.472 35.8248 16.472C34.7581 16.472 33.8088 16.7173 32.9768 17.208C32.1448 17.6773 31.4941 18.3493 31.0248 19.224C30.5554 20.0773 30.3208 21.0587 30.3208 22.168V22.68C30.3208 23.8107 30.5768 24.824 31.0888 25.72C31.6221 26.5947 32.3581 27.2773 33.2968 27.768C34.2354 28.2587 35.3128 28.504 36.5288 28.504C37.5314 28.504 38.4381 28.3333 39.2488 27.992C40.0808 27.6507 40.8061 27.1387 41.4248 26.456L43.1208 28.44C42.3528 29.336 41.3928 30.0187 40.2408 30.488C39.1101 30.9573 37.8408 31.192 36.4328 31.192ZM48.4745 31V7.256H51.5465V31H48.4745ZM57.412 31V7.256H60.484V31H57.412ZM73.6135 31.192C71.9068 31.192 70.3922 30.8187 69.0695 30.072C67.7468 29.3253 66.7015 28.3013 65.9335 27C65.1655 25.6773 64.7815 24.184 64.7815 22.52C64.7815 20.8347 65.1655 19.3413 65.9335 18.04C66.7015 16.7387 67.7468 15.7253 69.0695 15C70.3922 14.2533 71.9068 13.88 73.6135 13.88C75.2988 13.88 76.8028 14.2533 78.1255 15C79.4695 15.7253 80.5148 16.7387 81.2615 18.04C82.0295 19.32 82.4135 20.8133 82.4135 22.52C82.4135 24.2053 82.0295 25.6987 81.2615 27C80.5148 28.3013 79.4695 29.3253 78.1255 30.072C76.8028 30.8187 75.2988 31.192 73.6135 31.192ZM73.6135 28.504C74.7015 28.504 75.6722 28.2587 76.5255 27.768C77.4002 27.2773 78.0828 26.584 78.5735 25.688C79.0642 24.7707 79.3095 23.7147 79.3095 22.52C79.3095 21.304 79.0642 20.2587 78.5735 19.384C78.0828 18.488 77.4002 17.7947 76.5255 17.304C75.6722 16.8133 74.7015 16.568 73.6135 16.568C72.5255 16.568 71.5548 16.8133 70.7015 17.304C69.8482 17.7947 69.1655 18.488 68.6535 19.384C68.1415 20.2587 67.8855 21.304 67.8855 22.52C67.8855 23.7147 68.1415 24.7707 68.6535 25.688C69.1655 26.584 69.8482 27.2773 70.7015 27.768C71.5548 28.2587 72.5255 28.504 73.6135 28.504Z" fill="#F4F4F4"/>
<path d="M5.312 117V72.2H15.68V117H5.312ZM23.88 90.76L28.104 75.4L29.512 81.224C27.6773 81.224 26.1627 80.6907 24.968 79.624C23.816 78.5147 23.24 77.0213 23.24 75.144C23.24 73.3093 23.8373 71.8373 25.032 70.728C26.2267 69.576 27.6987 69 29.448 69C31.24 69 32.712 69.576 33.864 70.728C35.016 71.8373 35.592 73.3093 35.592 75.144C35.592 75.6987 35.5493 76.2533 35.464 76.808C35.4213 77.32 35.272 77.9387 35.016 78.664C34.8027 79.3893 34.44 80.3493 33.928 81.544L30.216 90.76H23.88ZM86.454 82.056C89.1847 82.056 91.5953 82.6107 93.686 83.72C95.8193 84.7867 97.4833 86.4507 98.678 88.712C99.9153 90.9307 100.534 93.7893 100.534 97.288V117H90.55V98.824C90.55 96.0507 89.974 94.0027 88.822 92.68C87.67 91.3573 86.0487 90.696 83.958 90.696C82.5073 90.696 81.206 91.0373 80.054 91.72C78.902 92.36 78.006 93.3413 77.366 94.664C76.726 95.9867 76.406 97.672 76.406 99.72V117H66.422V98.824C66.422 96.0507 65.846 94.0027 64.694 92.68C63.5847 91.3573 61.9847 90.696 59.894 90.696C58.4433 90.696 57.142 91.0373 55.99 91.72C54.838 92.36 53.942 93.3413 53.302 94.664C52.662 95.9867 52.342 97.672 52.342 99.72V117H42.358V82.568H51.894V91.976L50.102 89.224C51.2967 86.8773 52.982 85.1067 55.158 83.912C57.3767 82.6747 59.894 82.056 62.71 82.056C65.8673 82.056 68.6193 82.8667 70.966 84.488C73.3553 86.0667 74.934 88.4987 75.702 91.784L72.182 90.824C73.334 88.136 75.1687 86.0027 77.686 84.424C80.246 82.8453 83.1687 82.056 86.454 82.056Z" fill="#F4F4F4"/>
<path d="M139.448 117V98.696L141.816 104.968L122.104 72.2H133.112L148.216 97.352H141.88L157.048 72.2H167.224L147.512 104.968L149.816 98.696V117H139.448ZM183.43 117.512C179.76 117.512 176.496 116.744 173.638 115.208C170.822 113.672 168.582 111.581 166.918 108.936C165.296 106.248 164.486 103.197 164.486 99.784C164.486 96.328 165.296 93.2773 166.918 90.632C168.582 87.944 170.822 85.8533 173.638 84.36C176.496 82.824 179.76 82.056 183.43 82.056C187.056 82.056 190.299 82.824 193.158 84.36C196.016 85.8533 198.256 87.9227 199.878 90.568C201.499 93.2133 202.31 96.2853 202.31 99.784C202.31 103.197 201.499 106.248 199.878 108.936C198.256 111.581 196.016 113.672 193.158 115.208C190.299 116.744 187.056 117.512 183.43 117.512ZM183.43 109.32C185.094 109.32 186.587 108.936 187.91 108.168C189.232 107.4 190.278 106.312 191.046 104.904C191.814 103.453 192.198 101.747 192.198 99.784C192.198 97.7787 191.814 96.072 191.046 94.664C190.278 93.256 189.232 92.168 187.91 91.4C186.587 90.632 185.094 90.248 183.43 90.248C181.766 90.248 180.272 90.632 178.95 91.4C177.627 92.168 176.56 93.256 175.75 94.664C174.982 96.072 174.598 97.7787 174.598 99.784C174.598 101.747 174.982 103.453 175.75 104.904C176.56 106.312 177.627 107.4 178.95 108.168C180.272 108.936 181.766 109.32 183.43 109.32ZM226.071 117.512C222.146 117.512 218.69 116.744 215.703 115.208C212.759 113.672 210.476 111.581 208.855 108.936C207.234 106.248 206.423 103.197 206.423 99.784C206.423 96.328 207.212 93.2773 208.791 90.632C210.412 87.944 212.61 85.8533 215.383 84.36C218.156 82.824 221.292 82.056 224.791 82.056C228.162 82.056 231.191 82.7813 233.879 84.232C236.61 85.64 238.764 87.688 240.343 90.376C241.922 93.0213 242.711 96.2 242.711 99.912C242.711 100.296 242.69 100.744 242.647 101.256C242.604 101.725 242.562 102.173 242.519 102.6H214.551V96.776H237.271L233.431 98.504C233.431 96.712 233.068 95.1547 232.343 93.832C231.618 92.5093 230.615 91.4853 229.335 90.76C228.055 89.992 226.562 89.608 224.855 89.608C223.148 89.608 221.634 89.992 220.311 90.76C219.031 91.4853 218.028 92.5307 217.303 93.896C216.578 95.2187 216.215 96.7973 216.215 98.632V100.168C216.215 102.045 216.62 103.709 217.431 105.16C218.284 106.568 219.458 107.656 220.951 108.424C222.487 109.149 224.279 109.512 226.327 109.512C228.162 109.512 229.762 109.235 231.127 108.68C232.535 108.125 233.815 107.293 234.967 106.184L240.279 111.944C238.7 113.736 236.716 115.123 234.327 116.104C231.938 117.043 229.186 117.512 226.071 117.512ZM249.358 117V69.512H259.342V117H249.358ZM277.952 117L263.488 82.568H273.792L285.824 112.2H280.704L293.184 82.568H302.784L288.256 117H277.952ZM310.335 129.928C308.543 129.928 306.772 129.651 305.023 129.096C303.274 128.541 301.844 127.773 300.735 126.792L304.383 119.688C305.151 120.371 306.026 120.904 307.007 121.288C308.031 121.672 309.034 121.864 310.015 121.864C311.423 121.864 312.532 121.523 313.343 120.84C314.196 120.2 314.964 119.112 315.647 117.576L317.439 113.352L318.207 112.264L330.559 82.568H340.159L324.607 119.112C323.498 121.885 322.218 124.061 320.767 125.64C319.359 127.219 317.78 128.328 316.031 128.968C314.324 129.608 312.426 129.928 310.335 129.928ZM316.223 118.344L300.863 82.568H311.167L323.071 111.368L316.223 118.344ZM355.317 117.512C352.373 117.512 349.536 117.171 346.805 116.488C344.117 115.763 341.984 114.867 340.405 113.8L343.733 106.632C345.312 107.613 347.168 108.424 349.301 109.064C351.477 109.661 353.61 109.96 355.701 109.96C358.005 109.96 359.626 109.683 360.565 109.128C361.546 108.573 362.037 107.805 362.037 106.824C362.037 106.013 361.653 105.416 360.885 105.032C360.16 104.605 359.178 104.285 357.941 104.072C356.704 103.859 355.338 103.645 353.845 103.432C352.394 103.219 350.922 102.941 349.429 102.6C347.936 102.216 346.57 101.661 345.333 100.936C344.096 100.211 343.093 99.2293 342.325 97.992C341.6 96.7547 341.237 95.1547 341.237 93.192C341.237 91.016 341.856 89.096 343.093 87.432C344.373 85.768 346.208 84.4667 348.597 83.528C350.986 82.5467 353.845 82.056 357.173 82.056C359.52 82.056 361.909 82.312 364.341 82.824C366.773 83.336 368.8 84.0827 370.421 85.064L367.093 92.168C365.429 91.1867 363.744 90.5253 362.037 90.184C360.373 89.8 358.752 89.608 357.173 89.608C354.954 89.608 353.333 89.9067 352.309 90.504C351.285 91.1013 350.773 91.8693 350.773 92.808C350.773 93.6613 351.136 94.3013 351.861 94.728C352.629 95.1547 353.632 95.496 354.869 95.752C356.106 96.008 357.45 96.2427 358.901 96.456C360.394 96.6267 361.888 96.904 363.381 97.288C364.874 97.672 366.218 98.2267 367.413 98.952C368.65 99.6347 369.653 100.595 370.421 101.832C371.189 103.027 371.573 104.605 371.573 106.568C371.573 108.701 370.933 110.6 369.653 112.264C368.373 113.885 366.517 115.165 364.085 116.104C361.696 117.043 358.773 117.512 355.317 117.512ZM396.562 117V72.2H415.954C419.965 72.2 423.421 72.8613 426.322 74.184C429.223 75.464 431.463 77.32 433.042 79.752C434.621 82.184 435.41 85.0853 435.41 88.456C435.41 91.784 434.621 94.664 433.042 97.096C431.463 99.528 429.223 101.405 426.322 102.728C423.421 104.008 419.965 104.648 415.954 104.648H402.322L406.93 99.976V117H396.562ZM406.93 101.128L402.322 96.2H415.378C418.578 96.2 420.967 95.5173 422.546 94.152C424.125 92.7867 424.914 90.888 424.914 88.456C424.914 85.9813 424.125 84.0613 422.546 82.696C420.967 81.3307 418.578 80.648 415.378 80.648H402.322L406.93 75.72V101.128ZM459.134 117.512C455.208 117.512 451.752 116.744 448.766 115.208C445.822 113.672 443.539 111.581 441.918 108.936C440.296 106.248 439.486 103.197 439.486 99.784C439.486 96.328 440.275 93.2773 441.854 90.632C443.475 87.944 445.672 85.8533 448.446 84.36C451.219 82.824 454.355 82.056 457.854 82.056C461.224 82.056 464.254 82.7813 466.942 84.232C469.672 85.64 471.827 87.688 473.406 90.376C474.984 93.0213 475.774 96.2 475.774 99.912C475.774 100.296 475.752 100.744 475.71 101.256C475.667 101.725 475.624 102.173 475.582 102.6H447.614V96.776H470.333L466.494 98.504C466.494 96.712 466.131 95.1547 465.406 93.832C464.68 92.5093 463.678 91.4853 462.398 90.76C461.118 89.992 459.624 89.608 457.918 89.608C456.211 89.608 454.696 89.992 453.374 90.76C452.094 91.4853 451.091 92.5307 450.366 93.896C449.64 95.2187 449.278 96.7973 449.278 98.632V100.168C449.278 102.045 449.683 103.709 450.494 105.16C451.347 106.568 452.52 107.656 454.014 108.424C455.55 109.149 457.342 109.512 459.39 109.512C461.224 109.512 462.824 109.235 464.19 108.68C465.598 108.125 466.878 107.293 468.03 106.184L473.342 111.944C471.763 113.736 469.779 115.123 467.39 116.104C465 117.043 462.248 117.512 459.134 117.512ZM451.838 78.152L460.478 68.936H471.229L459.646 78.152H451.838ZM482.421 117V82.568H491.957V92.296L490.613 89.48C491.637 87.048 493.279 85.2133 495.541 83.976C497.802 82.696 500.554 82.056 503.797 82.056V91.272C503.37 91.2293 502.986 91.208 502.645 91.208C502.303 91.1653 501.941 91.144 501.557 91.144C498.826 91.144 496.607 91.9333 494.901 93.512C493.237 95.048 492.405 97.4587 492.405 100.744V117H482.421ZM526.571 117.512C522.646 117.512 519.19 116.744 516.203 115.208C513.259 113.672 510.976 111.581 509.355 108.936C507.734 106.248 506.923 103.197 506.923 99.784C506.923 96.328 507.712 93.2773 509.291 90.632C510.912 87.944 513.11 85.8533 515.883 84.36C518.656 82.824 521.792 82.056 525.291 82.056C528.662 82.056 531.691 82.7813 534.379 84.232C537.11 85.64 539.264 87.688 540.843 90.376C542.422 93.0213 543.211 96.2 543.211 99.912C543.211 100.296 543.19 100.744 543.147 101.256C543.104 101.725 543.062 102.173 543.019 102.6H515.051V96.776H537.771L533.931 98.504C533.931 96.712 533.568 95.1547 532.843 93.832C532.118 92.5093 531.115 91.4853 529.835 90.76C528.555 89.992 527.062 89.608 525.355 89.608C523.648 89.608 522.134 89.992 520.811 90.76C519.531 91.4853 518.528 92.5307 517.803 93.896C517.078 95.2187 516.715 96.7973 516.715 98.632V100.168C516.715 102.045 517.12 103.709 517.931 105.16C518.784 106.568 519.958 107.656 521.451 108.424C522.987 109.149 524.779 109.512 526.827 109.512C528.662 109.512 530.262 109.235 531.627 108.68C533.035 108.125 534.315 107.293 535.467 106.184L540.779 111.944C539.2 113.736 537.216 115.123 534.827 116.104C532.438 117.043 529.686 117.512 526.571 117.512ZM547.178 117V110.984L567.53 86.92L569.258 90.248H547.626V82.568H577.322V88.584L556.97 112.648L555.178 109.32H577.898V117H547.178ZM624.565 117.768C621.109 117.768 617.887 117.213 614.901 116.104C611.957 114.952 609.397 113.331 607.22 111.24C605.045 109.149 603.338 106.696 602.101 103.88C600.906 101.064 600.309 97.9707 600.309 94.6C600.309 91.2293 600.906 88.136 602.101 85.32C603.338 82.504 605.045 80.0507 607.22 77.96C609.439 75.8693 612.021 74.2693 614.965 73.16C617.909 72.008 621.13 71.432 624.629 71.432C628.511 71.432 632.01 72.1147 635.125 73.48C638.282 74.8027 640.927 76.7653 643.061 79.368L636.405 85.512C634.869 83.7627 633.162 82.4613 631.285 81.608C629.407 80.712 627.359 80.264 625.141 80.264C623.05 80.264 621.13 80.6053 619.381 81.288C617.631 81.9707 616.117 82.952 614.837 84.232C613.557 85.512 612.554 87.0267 611.829 88.776C611.146 90.5253 610.805 92.4667 610.805 94.6C610.805 96.7333 611.146 98.6747 611.829 100.424C612.554 102.173 613.557 103.688 614.837 104.968C616.117 106.248 617.631 107.229 619.381 107.912C621.13 108.595 623.05 108.936 625.141 108.936C627.359 108.936 629.407 108.509 631.285 107.656C633.162 106.76 634.869 105.416 636.405 103.624L643.061 109.768C640.927 112.371 638.282 114.355 635.125 115.72C632.01 117.085 628.49 117.768 624.565 117.768ZM670.291 117V110.28L669.651 108.808V96.776C669.651 94.6427 668.989 92.9787 667.667 91.784C666.387 90.5893 664.403 89.992 661.715 89.992C659.88 89.992 658.067 90.2907 656.275 90.888C654.525 91.4427 653.032 92.2107 651.795 93.192L648.211 86.216C650.088 84.8933 652.349 83.8693 654.995 83.144C657.64 82.4187 660.328 82.056 663.059 82.056C668.307 82.056 672.381 83.2933 675.283 85.768C678.184 88.2427 679.635 92.104 679.635 97.352V117H670.291ZM659.795 117.512C657.107 117.512 654.803 117.064 652.883 116.168C650.963 115.229 649.491 113.971 648.467 112.392C647.443 110.813 646.931 109.043 646.931 107.08C646.931 105.032 647.421 103.24 648.403 101.704C649.427 100.168 651.027 98.9733 653.203 98.12C655.379 97.224 658.216 96.776 661.715 96.776H670.867V102.6H662.803C660.456 102.6 658.835 102.984 657.939 103.752C657.085 104.52 656.659 105.48 656.659 106.632C656.659 107.912 657.149 108.936 658.131 109.704C659.155 110.429 660.541 110.792 662.291 110.792C663.955 110.792 665.448 110.408 666.771 109.64C668.093 108.829 669.053 107.656 669.651 106.12L671.187 110.728C670.461 112.947 669.139 114.632 667.219 115.784C665.299 116.936 662.824 117.512 659.795 117.512ZM709.023 117.512C705.993 117.512 703.391 116.872 701.215 115.592C699.039 114.312 697.375 112.371 696.223 109.768C695.071 107.123 694.495 103.795 694.495 99.784C694.495 95.7307 695.092 92.4027 696.287 89.8C697.524 87.1973 699.231 85.256 701.407 83.976C703.583 82.696 706.121 82.056 709.023 82.056C712.265 82.056 715.167 82.7813 717.727 84.232C720.329 85.6827 722.377 87.7307 723.871 90.376C725.407 93.0213 726.175 96.1573 726.175 99.784C726.175 103.368 725.407 106.483 723.871 109.128C722.377 111.773 720.329 113.843 717.727 115.336C715.167 116.787 712.265 117.512 709.023 117.512ZM688.671 117V69.512H698.655V89.544L698.015 99.72L698.207 109.96V117H688.671ZM707.295 109.32C708.959 109.32 710.431 108.936 711.711 108.168C713.033 107.4 714.079 106.312 714.847 104.904C715.657 103.453 716.062 101.747 716.062 99.784C716.062 97.7787 715.657 96.072 714.847 94.664C714.079 93.256 713.033 92.168 711.711 91.4C710.431 90.632 708.959 90.248 707.295 90.248C705.631 90.248 704.137 90.632 702.815 91.4C701.492 92.168 700.447 93.256 699.679 94.664C698.911 96.072 698.527 97.7787 698.527 99.784C698.527 101.747 698.911 103.453 699.679 104.904C700.447 106.312 701.492 107.4 702.815 108.168C704.137 108.936 705.631 109.32 707.295 109.32ZM732.858 117V82.568H742.394V92.296L741.05 89.48C742.074 87.048 743.717 85.2133 745.978 83.976C748.239 82.696 750.991 82.056 754.234 82.056V91.272C753.807 91.2293 753.423 91.208 753.082 91.208C752.741 91.1653 752.378 91.144 751.994 91.144C749.263 91.144 747.045 91.9333 745.338 93.512C743.674 95.048 742.842 97.4587 742.842 100.744V117H732.858ZM777.009 117.512C773.083 117.512 769.627 116.744 766.641 115.208C763.697 113.672 761.414 111.581 759.793 108.936C758.171 106.248 757.361 103.197 757.361 99.784C757.361 96.328 758.15 93.2773 759.729 90.632C761.35 87.944 763.547 85.8533 766.321 84.36C769.094 82.824 772.23 82.056 775.729 82.056C779.099 82.056 782.129 82.7813 784.817 84.232C787.547 85.64 789.702 87.688 791.281 90.376C792.859 93.0213 793.649 96.2 793.649 99.912C793.649 100.296 793.627 100.744 793.585 101.256C793.542 101.725 793.499 102.173 793.457 102.6H765.489V96.776H788.208L784.369 98.504C784.369 96.712 784.006 95.1547 783.281 93.832C782.555 92.5093 781.553 91.4853 780.273 90.76C778.993 89.992 777.499 89.608 775.793 89.608C774.086 89.608 772.571 89.992 771.249 90.76C769.969 91.4853 768.966 92.5307 768.241 93.896C767.515 95.2187 767.153 96.7973 767.153 98.632V100.168C767.153 102.045 767.558 103.709 768.369 105.16C769.222 106.568 770.395 107.656 771.889 108.424C773.425 109.149 775.217 109.512 777.265 109.512C779.099 109.512 780.699 109.235 782.065 108.68C783.473 108.125 784.753 107.293 785.905 106.184L791.217 111.944C789.638 113.736 787.654 115.123 785.265 116.104C782.875 117.043 780.123 117.512 777.009 117.512ZM800.296 117V82.568H809.832V92.296L808.488 89.48C809.512 87.048 811.154 85.2133 813.416 83.976C815.677 82.696 818.429 82.056 821.672 82.056V91.272C821.245 91.2293 820.861 91.208 820.52 91.208C820.178 91.1653 819.816 91.144 819.432 91.144C816.701 91.144 814.482 91.9333 812.776 93.512C811.112 95.048 810.28 97.4587 810.28 100.744V117H800.296ZM846.478 117V110.28L845.838 108.808V96.776C845.838 94.6427 845.177 92.9787 843.854 91.784C842.574 90.5893 840.59 89.992 837.902 89.992C836.067 89.992 834.254 90.2907 832.462 90.888C830.713 91.4427 829.219 92.2107 827.982 93.192L824.398 86.216C826.275 84.8933 828.537 83.8693 831.182 83.144C833.827 82.4187 836.515 82.056 839.246 82.056C844.494 82.056 848.569 83.2933 851.47 85.768C854.371 88.2427 855.822 92.104 855.822 97.352V117H846.478ZM835.982 117.512C833.294 117.512 830.99 117.064 829.07 116.168C827.15 115.229 825.678 113.971 824.654 112.392C823.63 110.813 823.118 109.043 823.118 107.08C823.118 105.032 823.609 103.24 824.59 101.704C825.614 100.168 827.214 98.9733 829.39 98.12C831.566 97.224 834.403 96.776 837.902 96.776H847.054V102.6H838.99C836.643 102.6 835.022 102.984 834.126 103.752C833.273 104.52 832.846 105.48 832.846 106.632C832.846 107.912 833.337 108.936 834.318 109.704C835.342 110.429 836.729 110.792 838.478 110.792C840.142 110.792 841.635 110.408 842.958 109.64C844.281 108.829 845.241 107.656 845.838 106.12L847.374 110.728C846.649 112.947 845.326 114.632 843.406 115.784C841.486 116.936 839.011 117.512 835.982 117.512Z" fill="url(#paint0_linear_125_84)"/>
<path d="M8.19 174.502H23.352V178.114H8.19V174.502ZM8.61 190H4.41V160.6H25.158V164.254H8.61V190ZM30.072 190V167.74H33.936V173.788L33.558 172.276C34.174 170.736 35.21 169.56 36.666 168.748C38.122 167.936 39.914 167.53 42.042 167.53V171.436C41.874 171.408 41.706 171.394 41.538 171.394C41.398 171.394 41.258 171.394 41.118 171.394C38.962 171.394 37.254 172.038 35.994 173.326C34.734 174.614 34.104 176.476 34.104 178.912V190H30.072ZM56.3404 190.252C54.1004 190.252 52.1124 189.762 50.3764 188.782C48.6404 187.802 47.2684 186.458 46.2604 184.75C45.2524 183.014 44.7484 181.054 44.7484 178.87C44.7484 176.658 45.2524 174.698 46.2604 172.99C47.2684 171.282 48.6404 169.952 50.3764 169C52.1124 168.02 54.1004 167.53 56.3404 167.53C58.5524 167.53 60.5264 168.02 62.2624 169C64.0264 169.952 65.3984 171.282 66.3784 172.99C67.3864 174.67 67.8904 176.63 67.8904 178.87C67.8904 181.082 67.3864 183.042 66.3784 184.75C65.3984 186.458 64.0264 187.802 62.2624 188.782C60.5264 189.762 58.5524 190.252 56.3404 190.252ZM56.3404 186.724C57.7684 186.724 59.0424 186.402 60.1624 185.758C61.3104 185.114 62.2064 184.204 62.8504 183.028C63.4944 181.824 63.8164 180.438 63.8164 178.87C63.8164 177.274 63.4944 175.902 62.8504 174.754C62.2064 173.578 61.3104 172.668 60.1624 172.024C59.0424 171.38 57.7684 171.058 56.3404 171.058C54.9124 171.058 53.6384 171.38 52.5184 172.024C51.3984 172.668 50.5024 173.578 49.8304 174.754C49.1584 175.902 48.8224 177.274 48.8224 178.87C48.8224 180.438 49.1584 181.824 49.8304 183.028C50.5024 184.204 51.3984 185.114 52.5184 185.758C53.6384 186.402 54.9124 186.724 56.3404 186.724ZM85.3525 167.53C87.1725 167.53 88.7685 167.88 90.1405 168.58C91.5405 169.28 92.6325 170.344 93.4165 171.772C94.2005 173.2 94.5925 175.006 94.5925 177.19V190H90.5605V177.652C90.5605 175.496 90.0285 173.872 88.9645 172.78C87.9285 171.688 86.4585 171.142 84.5545 171.142C83.1265 171.142 81.8805 171.422 80.8165 171.982C79.7525 172.542 78.9265 173.368 78.3385 174.46C77.7785 175.552 77.4985 176.91 77.4985 178.534V190H73.4665V167.74H77.3305V173.746L76.7005 172.15C77.4285 170.694 78.5485 169.56 80.0605 168.748C81.5725 167.936 83.3365 167.53 85.3525 167.53ZM109.698 190.252C107.458 190.252 105.722 189.65 104.49 188.446C103.258 187.242 102.642 185.52 102.642 183.28V162.868H106.674V183.112C106.674 184.316 106.968 185.24 107.556 185.884C108.172 186.528 109.04 186.85 110.16 186.85C111.42 186.85 112.47 186.5 113.31 185.8L114.57 188.698C113.954 189.23 113.212 189.622 112.344 189.874C111.504 190.126 110.622 190.252 109.698 190.252ZM98.8624 171.058V167.74H113.058V171.058H98.8624ZM128.619 190.252C126.239 190.252 124.139 189.762 122.319 188.782C120.527 187.802 119.127 186.458 118.119 184.75C117.139 183.042 116.649 181.082 116.649 178.87C116.649 176.658 117.125 174.698 118.077 172.99C119.057 171.282 120.387 169.952 122.067 169C123.775 168.02 125.693 167.53 127.821 167.53C129.977 167.53 131.881 168.006 133.533 168.958C135.185 169.91 136.473 171.254 137.397 172.99C138.349 174.698 138.825 176.7 138.825 178.996C138.825 179.164 138.811 179.36 138.783 179.584C138.783 179.808 138.769 180.018 138.741 180.214H119.799V177.316H136.641L135.003 178.324C135.031 176.896 134.737 175.622 134.121 174.502C133.505 173.382 132.651 172.514 131.559 171.898C130.495 171.254 129.249 170.932 127.821 170.932C126.421 170.932 125.175 171.254 124.083 171.898C122.991 172.514 122.137 173.396 121.521 174.544C120.905 175.664 120.597 176.952 120.597 178.408V179.08C120.597 180.564 120.933 181.894 121.605 183.07C122.305 184.218 123.271 185.114 124.503 185.758C125.735 186.402 127.149 186.724 128.745 186.724C130.061 186.724 131.251 186.5 132.315 186.052C133.407 185.604 134.359 184.932 135.171 184.036L137.397 186.64C136.389 187.816 135.129 188.712 133.617 189.328C132.133 189.944 130.467 190.252 128.619 190.252ZM156.31 167.53C158.13 167.53 159.726 167.88 161.098 168.58C162.498 169.28 163.59 170.344 164.374 171.772C165.158 173.2 165.55 175.006 165.55 177.19V190H161.518V177.652C161.518 175.496 160.986 173.872 159.922 172.78C158.886 171.688 157.416 171.142 155.512 171.142C154.084 171.142 152.838 171.422 151.774 171.982C150.71 172.542 149.884 173.368 149.296 174.46C148.736 175.552 148.456 176.91 148.456 178.534V190H144.424V167.74H148.288V173.746L147.658 172.15C148.386 170.694 149.506 169.56 151.018 168.748C152.53 167.936 154.294 167.53 156.31 167.53ZM182.209 190.252C180.053 190.252 178.121 189.776 176.413 188.824C174.733 187.872 173.403 186.542 172.423 184.834C171.443 183.126 170.953 181.138 170.953 178.87C170.953 176.602 171.443 174.628 172.423 172.948C173.403 171.24 174.733 169.91 176.413 168.958C178.121 168.006 180.053 167.53 182.209 167.53C184.085 167.53 185.779 167.95 187.291 168.79C188.803 169.63 190.007 170.89 190.903 172.57C191.827 174.25 192.289 176.35 192.289 178.87C192.289 181.39 191.841 183.49 190.945 185.17C190.077 186.85 188.887 188.124 187.375 188.992C185.863 189.832 184.141 190.252 182.209 190.252ZM182.545 186.724C183.945 186.724 185.205 186.402 186.325 185.758C187.473 185.114 188.369 184.204 189.013 183.028C189.685 181.824 190.021 180.438 190.021 178.87C190.021 177.274 189.685 175.902 189.013 174.754C188.369 173.578 187.473 172.668 186.325 172.024C185.205 171.38 183.945 171.058 182.545 171.058C181.117 171.058 179.843 171.38 178.723 172.024C177.603 172.668 176.707 173.578 176.035 174.754C175.363 175.902 175.027 177.274 175.027 178.87C175.027 180.438 175.363 181.824 176.035 183.028C176.707 184.204 177.603 185.114 178.723 185.758C179.843 186.402 181.117 186.724 182.545 186.724ZM190.147 190V183.994L190.399 178.828L189.979 173.662V158.836H194.011V190H190.147ZM213.508 190V160.6H225.898C229.034 160.6 231.792 161.216 234.172 162.448C236.58 163.68 238.442 165.402 239.758 167.614C241.102 169.826 241.774 172.388 241.774 175.3C241.774 178.212 241.102 180.774 239.758 182.986C238.442 185.198 236.58 186.92 234.172 188.152C231.792 189.384 229.034 190 225.898 190H213.508ZM217.708 186.346H225.646C228.082 186.346 230.182 185.884 231.946 184.96C233.738 184.036 235.124 182.748 236.104 181.096C237.084 179.416 237.574 177.484 237.574 175.3C237.574 173.088 237.084 171.156 236.104 169.504C235.124 167.852 233.738 166.564 231.946 165.64C230.182 164.716 228.082 164.254 225.646 164.254H217.708V186.346ZM257.531 190.252C255.151 190.252 253.051 189.762 251.231 188.782C249.439 187.802 248.039 186.458 247.031 184.75C246.051 183.042 245.561 181.082 245.561 178.87C245.561 176.658 246.037 174.698 246.989 172.99C247.969 171.282 249.299 169.952 250.979 169C252.687 168.02 254.605 167.53 256.733 167.53C258.889 167.53 260.793 168.006 262.445 168.958C264.097 169.91 265.385 171.254 266.309 172.99C267.261 174.698 267.737 176.7 267.737 178.996C267.737 179.164 267.723 179.36 267.695 179.584C267.695 179.808 267.681 180.018 267.653 180.214H248.711V177.316H265.553L263.915 178.324C263.943 176.896 263.649 175.622 263.033 174.502C262.417 173.382 261.563 172.514 260.471 171.898C259.407 171.254 258.161 170.932 256.733 170.932C255.333 170.932 254.087 171.254 252.995 171.898C251.903 172.514 251.049 173.396 250.433 174.544C249.817 175.664 249.509 176.952 249.509 178.408V179.08C249.509 180.564 249.845 181.894 250.517 183.07C251.217 184.218 252.183 185.114 253.415 185.758C254.647 186.402 256.061 186.724 257.657 186.724C258.973 186.724 260.163 186.5 261.227 186.052C262.319 185.604 263.271 184.932 264.083 184.036L266.309 186.64C265.301 187.816 264.041 188.712 262.529 189.328C261.045 189.944 259.379 190.252 257.531 190.252ZM278.764 190L269.02 167.74H273.22L281.872 187.9H279.856L288.676 167.74H292.624L282.88 190H278.764ZM305.683 190.252C303.303 190.252 301.203 189.762 299.383 188.782C297.591 187.802 296.191 186.458 295.183 184.75C294.203 183.042 293.713 181.082 293.713 178.87C293.713 176.658 294.189 174.698 295.141 172.99C296.121 171.282 297.451 169.952 299.131 169C300.839 168.02 302.757 167.53 304.885 167.53C307.041 167.53 308.945 168.006 310.597 168.958C312.249 169.91 313.537 171.254 314.461 172.99C315.413 174.698 315.889 176.7 315.889 178.996C315.889 179.164 315.875 179.36 315.847 179.584C315.847 179.808 315.833 180.018 315.805 180.214H296.863V177.316H313.705L312.067 178.324C312.095 176.896 311.801 175.622 311.185 174.502C310.569 173.382 309.715 172.514 308.623 171.898C307.559 171.254 306.313 170.932 304.885 170.932C303.485 170.932 302.239 171.254 301.147 171.898C300.055 172.514 299.201 173.396 298.585 174.544C297.969 175.664 297.661 176.952 297.661 178.408V179.08C297.661 180.564 297.997 181.894 298.669 183.07C299.369 184.218 300.335 185.114 301.567 185.758C302.799 186.402 304.213 186.724 305.809 186.724C307.125 186.724 308.315 186.5 309.379 186.052C310.471 185.604 311.423 184.932 312.235 184.036L314.461 186.64C313.453 187.816 312.193 188.712 310.681 189.328C309.197 189.944 307.531 190.252 305.683 190.252ZM321.488 190V158.836H325.52V190H321.488ZM342.752 190.252C340.512 190.252 338.524 189.762 336.788 188.782C335.052 187.802 333.68 186.458 332.672 184.75C331.664 183.014 331.16 181.054 331.16 178.87C331.16 176.658 331.664 174.698 332.672 172.99C333.68 171.282 335.052 169.952 336.788 169C338.524 168.02 340.512 167.53 342.752 167.53C344.964 167.53 346.938 168.02 348.674 169C350.438 169.952 351.81 171.282 352.79 172.99C353.798 174.67 354.302 176.63 354.302 178.87C354.302 181.082 353.798 183.042 352.79 184.75C351.81 186.458 350.438 187.802 348.674 188.782C346.938 189.762 344.964 190.252 342.752 190.252ZM342.752 186.724C344.18 186.724 345.454 186.402 346.574 185.758C347.722 185.114 348.618 184.204 349.262 183.028C349.906 181.824 350.228 180.438 350.228 178.87C350.228 177.274 349.906 175.902 349.262 174.754C348.618 173.578 347.722 172.668 346.574 172.024C345.454 171.38 344.18 171.058 342.752 171.058C341.324 171.058 340.05 171.38 338.93 172.024C337.81 172.668 336.914 173.578 336.242 174.754C335.57 175.902 335.234 177.274 335.234 178.87C335.234 180.438 335.57 181.824 336.242 183.028C336.914 184.204 337.81 185.114 338.93 185.758C340.05 186.402 341.324 186.724 342.752 186.724ZM371.681 190.252C369.833 190.252 368.139 189.832 366.599 188.992C365.087 188.124 363.869 186.85 362.945 185.17C362.049 183.49 361.601 181.39 361.601 178.87C361.601 176.35 362.035 174.25 362.903 172.57C363.799 170.89 365.003 169.63 366.515 168.79C368.055 167.95 369.777 167.53 371.681 167.53C373.865 167.53 375.797 168.006 377.477 168.958C379.157 169.91 380.487 171.24 381.467 172.948C382.447 174.628 382.937 176.602 382.937 178.87C382.937 181.138 382.447 183.126 381.467 184.834C380.487 186.542 379.157 187.872 377.477 188.824C375.797 189.776 373.865 190.252 371.681 190.252ZM359.879 198.148V167.74H363.743V173.746L363.491 178.912L363.911 184.078V198.148H359.879ZM371.345 186.724C372.773 186.724 374.047 186.402 375.167 185.758C376.315 185.114 377.211 184.204 377.855 183.028C378.527 181.824 378.863 180.438 378.863 178.87C378.863 177.274 378.527 175.902 377.855 174.754C377.211 173.578 376.315 172.668 375.167 172.024C374.047 171.38 372.773 171.058 371.345 171.058C369.945 171.058 368.671 171.38 367.523 172.024C366.403 172.668 365.507 173.578 364.835 174.754C364.191 175.902 363.869 177.274 363.869 178.87C363.869 180.438 364.191 181.824 364.835 183.028C365.507 184.204 366.403 185.114 367.523 185.758C368.671 186.402 369.945 186.724 371.345 186.724ZM398.42 190.252C396.04 190.252 393.94 189.762 392.12 188.782C390.328 187.802 388.928 186.458 387.92 184.75C386.94 183.042 386.45 181.082 386.45 178.87C386.45 176.658 386.926 174.698 387.878 172.99C388.858 171.282 390.188 169.952 391.868 169C393.576 168.02 395.494 167.53 397.622 167.53C399.778 167.53 401.682 168.006 403.334 168.958C404.986 169.91 406.274 171.254 407.198 172.99C408.15 174.698 408.626 176.7 408.626 178.996C408.626 179.164 408.612 179.36 408.584 179.584C408.584 179.808 408.57 180.018 408.542 180.214H389.6V177.316H406.442L404.804 178.324C404.832 176.896 404.538 175.622 403.922 174.502C403.306 173.382 402.452 172.514 401.36 171.898C400.296 171.254 399.05 170.932 397.622 170.932C396.222 170.932 394.976 171.254 393.884 171.898C392.792 172.514 391.938 173.396 391.322 174.544C390.706 175.664 390.398 176.952 390.398 178.408V179.08C390.398 180.564 390.734 181.894 391.406 183.07C392.106 184.218 393.072 185.114 394.304 185.758C395.536 186.402 396.95 186.724 398.546 186.724C399.862 186.724 401.052 186.5 402.116 186.052C403.208 185.604 404.16 184.932 404.972 184.036L407.198 186.64C406.19 187.816 404.93 188.712 403.418 189.328C401.934 189.944 400.268 190.252 398.42 190.252ZM414.224 190V167.74H418.088V173.788L417.71 172.276C418.326 170.736 419.362 169.56 420.818 168.748C422.274 167.936 424.066 167.53 426.194 167.53V171.436C426.026 171.408 425.858 171.394 425.69 171.394C425.55 171.394 425.41 171.394 425.27 171.394C423.114 171.394 421.406 172.038 420.146 173.326C418.886 174.614 418.256 176.476 418.256 178.912V190H414.224Z" fill="#F4F4F4"/>
<defs>
<linearGradient id="paint0_linear_125_84" x1="0" y1="94" x2="1146" y2="94" gradientUnits="userSpaceOnUse">
<stop stop-color="#D78FE3"/>
<stop offset="0.5" stop-color="#7779E7"/>
<stop offset="1" stop-color="#9BCFFC"/>
</linearGradient>
</defs>
</svg>
